<svg height="492pt" viewBox="0 -70 492.01826 492" width="492pt" xmlns="http://www.w3.org/2000/svg"><path d="m70.433594 160.476562c-2.34375-2.34375-6.140625-2.34375-8.484375 0l-6.871094 6.871094-6.871094-6.871094c-2.351562-2.3125-6.121093-2.296874-8.453125.035157-2.328125 2.328125-2.34375 6.101562-.035156 8.449219l6.871094 6.871093-6.871094 6.871094c-1.535156 1.511719-2.144531 3.730469-1.59375 5.8125.554688 2.085937 2.179688 3.710937 4.265625 4.261719 2.082031.554687 4.300781-.054688 5.8125-1.589844l6.871094-6.871094 6.871093 6.871094c2.351563 2.289062 6.109376 2.261719 8.429688-.058594 2.320312-2.320312 2.34375-6.074218.054688-8.425781l-6.867188-6.871094 6.871094-6.871093c2.339844-2.34375 2.339844-6.140626 0-8.484376zm0 0"/><path d="m69.417969 39.621094-19.667969 18.015625-8.660156-9.390625c-2.246094-2.4375-6.042969-2.589844-8.476563-.34375-2.4375 2.246094-2.589843 6.042968-.34375 8.476562l12.714844 13.789063c2.242187 2.429687 6.027344 2.589843 8.464844.355469l24.078125-22.054688c2.441406-2.238281 2.609375-6.035156.367187-8.476562-2.238281-2.445313-6.03125-2.609376-8.476562-.371094zm0 0"/><path d="m69.417969 281.136719-19.667969 18.019531-8.660156-9.394531c-2.246094-2.4375-6.042969-2.589844-8.476563-.34375-2.4375 2.246093-2.589843 6.042969-.34375 8.480469l12.714844 13.785156c2.242187 2.433594 6.027344 2.589844 8.464844.359375l24.078125-22.054688c1.59375-1.445312 2.296875-3.632812 1.835937-5.738281-.464843-2.101562-2.015625-3.796875-4.070312-4.4375-2.054688-.644531-4.292969-.136719-5.871094 1.324219zm0 0"/><path d="m109.917969 291.832031c-2.527344-29.128906-27.382813-51.199219-56.605469-50.265625s-52.617188 24.546875-53.28125 53.777344c-.660156 29.230469 21.640625 53.878906 50.789062 56.136719 29.152344 2.257812 54.980469-18.664063 58.824219-47.648438h25.246094c3.316406 0 6-2.6875 6-6v-116.011719h31.382813l-11.597657 11.597657c-2.34375 2.34375-2.34375 6.144531-.003906 8.484375 2.34375 2.34375 6.144531 2.34375 8.488281.003906l22.640625-22.644531c2.34375-2.34375 2.34375-6.140625 0-8.484375l-22.644531-22.644532c-1.511719-1.539062-3.730469-2.144531-5.816406-1.59375-2.082032.554688-3.710938 2.179688-4.261719 4.261719-.550781 2.085938.054687 4.304688 1.59375 5.816407l13.199219 13.199218h-32.980469v-116.015625c0-3.3125-2.6875-6-6-6h-25.25c-3.859375-28.984375-29.703125-49.898437-58.859375-47.625-29.152344 2.273438-51.445312 26.9375-50.765625 56.167969.675781 29.234375 24.085937 52.839844 53.3125 53.761719 29.230469.917969 54.078125-21.167969 56.589844-50.304688h18.972656v110.019531h-19.089844c-3.1875-29.066406-28.535156-50.570312-57.730469-48.972656-29.195312 1.59375-52.0468745 25.734375-52.0468745 54.972656 0 29.234376 22.8515625 53.375 52.0468745 54.96875 29.195313 1.597657 54.542969-19.90625 57.730469-48.96875h19.085938v110.011719zm-54.839844 47.816407c-23.78125 0-43.0625-19.277344-43.0625-43.058594s19.277344-43.058594 43.058594-43.058594 43.0625 19.277344 43.058593 43.058594c-.027343 23.769531-19.285156 43.03125-43.054687 43.058594zm0-241.515626c-23.78125 0-43.0625-19.277343-43.0625-43.058593s19.277344-43.058594 43.058594-43.0625c23.78125 0 43.058593 19.28125 43.058593 43.0625-.027343 23.765625-19.285156 43.027343-43.054687 43.058593zm0 120.757813c-23 .003906-41.941406-18.070313-43.019531-41.042969-1.074219-22.976562 16.09375-42.738281 38.992187-44.886718 22.898438-2.144532 43.445313 14.082031 46.65625 36.859374h-.527343v12h.527343c-3.007812 21.242188-21.175781 37.039063-42.628906 37.070313zm0 0"/><path d="m492.019531 58.929688c0-14.835938-11.46875-27.15625-26.269531-28.210938-14.800781-1.058594-27.902344 9.503906-30.011719 24.191406-2.105469 14.691406 7.496094 28.511719 21.996094 31.660156v47.796876c-3.496094-1.195313-7.113281-2-10.789063-2.398438-2.941406-17.3125-17.929687-29.988281-35.492187-30.015625h-35.800781v-15.113281c-.007813-7.207032-5.847656-13.046875-13.054688-13.054688h-34.285156v-14.703125c0-3.3125-2.6875-6-6-6-3.316406 0-6 2.6875-6 6v14.703125h-33.695312c-7.207032.007813-13.046876 5.847656-13.054688 13.054688v15.121094h-35.800781c-19.871094.019531-35.976563 16.125-36 36v88.554687c.023437 19.871094 16.128906 35.976563 36 36h177.691406c17.5625-.027344 32.550781-12.699219 35.492187-30.015625 21.089844-2.296875 38.5-17.523438 43.59375-38.117188s-3.214843-42.179687-20.804687-54.042968v-53.765625c12.996094-2.839844 22.269531-14.339844 22.285156-27.644531zm-210.453125 27.902343c0-.582031.472656-1.058593 1.054688-1.058593h79.972656c.582031.003906 1.054688.476562 1.054688 1.058593v15.117188h-82.082032zm129.886719 163.683594h-177.6875c-13.25-.015625-23.988281-10.753906-24-24v-88.554687c.015625-13.25 10.75-23.984376 24-24h177.6875c13.246094.015624 23.984375 10.75 24 24v88.554687c-.015625 13.246094-10.753906 23.984375-24 24zm68.566406-68.277344c-.023437 18.972657-13.828125 35.121094-32.566406 38.097657v-76.199219c18.738281 2.976562 32.542969 19.125 32.566406 38.101562zm-32.566406-123.308593c0-8.992188 7.289063-16.28125 16.28125-16.28125s16.285156 7.289062 16.285156 16.28125c0 8.996093-7.292969 16.285156-16.285156 16.285156-8.988281-.007813-16.273437-7.292969-16.28125-16.285156zm0 0"/><path d="m258.75 155.066406h-.238281c-11.035157.015625-19.980469 8.957032-19.992188 19.996094v11.878906c0 3.3125 2.683594 6 6 6h28.226563c3.3125 0 6-2.6875 6-6v-11.878906c-.015625-11.039062-8.960938-19.984375-19.996094-19.996094zm7.992188 25.875h-16.222657v-5.878906c.003907-4.414062 3.578125-7.992188 7.992188-7.996094h.238281c4.414062.003906 7.992188 3.582032 7.996094 7.996094zm0 0"/><path d="m386.707031 155.066406h-.242187c-11.035156.015625-19.980469 8.957032-19.992188 19.996094v11.878906c0 3.3125 2.6875 6 6 6h28.226563c3.3125 0 6-2.6875 6-6v-11.878906c-.011719-11.039062-8.957031-19.980469-19.992188-19.996094zm7.992188 25.875h-16.226563v-5.878906c.003906-4.414062 3.582032-7.992188 7.992188-7.996094h.242187c4.410157.003906 7.988281 3.582032 7.992188 7.996094zm0 0"/><path d="m350.832031 203.472656h-56.449219c-3.3125 0-6 2.6875-6 6v.238282c.019532 18.761718 15.226563 33.964843 33.988282 33.988281h.476562c18.761719-.023438 33.964844-15.226563 33.984375-33.988281v-.238282c0-3.3125-2.683593-6-6-6zm-27.984375 28.226563h-.476562c-9.921875-.015625-18.609375-6.65625-21.222656-16.226563h42.917968c-2.609375 9.570313-11.296875 16.210938-21.21875 16.226563zm0 0"/></svg>